<?xml version="1.0" encoding="utf-8"?>
<!-- Generator: Adobe Illustrator 27.1.0, SVG Export Plug-In . SVG Version: 6.00 Build 0)  -->
<svg version="1.1" id="Capa_1" xmlns="http://www.w3.org/2000/svg" xmlns:xlink="http://www.w3.org/1999/xlink" x="0px" y="0px"
	 viewBox="0 0 1366 259.5" style="enable-background:new 0 0 1366 259.5;" xml:space="preserve">
<style type="text/css">
	.st0{fill:#FFFFFF;}
</style>
<g>
	<path class="st0" d="M237.6,16.8c0.1,0.9,0.9,0.8,1.5,0.9c3.6,0.6,7.1,1,10.6,1.8c10.8,2.4,20.8,6.9,30,13
		c14.8,9.8,25.8,22.7,32.9,38.9c4.5,10.2,7.1,20.8,7.9,31.9c0.6,8.1-0.1,16.1-1.8,24c-1.5,7-3.7,13.9-6.8,20.4
		c-3.5,7.4-7.9,14.4-13.3,20.7c-5.5,6.3-11.6,11.9-18.6,16.5c-9.7,6.4-20.1,11.2-31.6,13.2c-1.9,0.3-2.9,1.1-3.7,2.8
		c-7.4,15.8-18.5,28.4-33.1,37.9c-6.2,4-12.8,7.1-19.8,9.6c-10.8,3.9-21.9,5.2-33.2,4.9c-17.5-0.5-33.6-5.6-47.9-15.5
		c-13-9-23.4-20.5-30.5-34.7c-5.5-11-8.8-22.5-9.6-34.8c-1.2-17.6,2.2-34.1,10.5-49.6c8.3-15.4,20.1-27.5,35.2-36.3
		c8-4.7,16.5-8,25.6-9.9c2.4-0.5,3.6-1.7,4.6-3.8c8.4-17.2,21.1-30.4,37.7-40c6.8-3.9,14-6.7,21.5-8.7c2.5-0.7,5.2-1.1,7.7-1.6
		c0.9-0.2,1.6-0.5,0.7-1.5C221.9,16.8,229.8,16.8,237.6,16.8z M141.5,80.1c-30.2,6.3-65.8,37.4-64,84.9
		c1.8,48.5,45.7,88.5,97.7,79.9c49.3-8.1,78.6-53.8,69.5-99.5c-9.4-47.6-55.7-73.7-94.7-66.9c-2.3,6.2-4.1,12.5-4.9,19.1
		c-1.4,11.5-0.6,22.8,2.5,33.9c3.1,10.9,8.3,20.9,15.5,29.7c0.8,0.9,1.4,1.9,2,3c0.8,1.6,0.4,3.4-1.1,4.5c-1.4,1-3,0.9-4.4-0.3
		c-0.7-0.6-1.3-1.4-1.9-2.1c-8.1-10.2-14-21.5-17.4-34.1c-3.9-14.4-4.3-28.8-1-43.3C139.9,86,140.8,83.1,141.5,80.1z M249.3,190.1
		c31.1-6.9,63.8-36.5,64-81.5c0.3-46.6-37.8-82.5-80.5-84.2c-23.8-1-44.4,7-61.9,23c-6.9,6.3-16.3,19.2-16.5,22.6
		c32.1-1.3,59.2,9.6,79.3,34.8C253.9,130.2,258,159,249.3,190.1z"/>
	<path class="st0" d="M443.1,156.9c-0.2,7.2-0.8,14.4-3.3,21.2c-4.3,11.8-11.6,21.1-23.3,26.3c-5,2.2-10.3,3.5-15.8,3.8
		c-6,0.4-11.8-0.1-17.6-1.7c-8.2-2.3-14.8-7-20.2-13.5c-6.2-7.4-9.6-16.1-10.9-25.6c-1.4-10.5-0.9-20.9,2.8-30.9
		c6.5-18,19.2-28.8,38.4-30.9c15.5-1.7,29,3.4,39.1,15.6c4.9,5.8,7.7,12.8,9.3,20.2C442.8,146.5,443.3,151.7,443.1,156.9z
		 M365.2,156.5c0.1,2,0.2,4,0.4,6c0.8,8.4,3,16.3,8.2,23.1c5.9,7.7,13.5,12.2,23.6,11.9c8.9-0.2,16.4-3.4,22.2-10.1
		c3.1-3.6,5.4-7.8,6.8-12.3c3.3-10.3,3.9-20.7,1.5-31.4c-2.1-9-6.3-16.7-13.8-22.3c-6.6-4.9-14.1-6.3-22.1-4.9
		c-9.2,1.7-15.9,7-20.5,15.1C367.2,139.4,365.6,147.8,365.2,156.5z"/>
	<path class="st0" d="M895.5,171.4c0.3-9.9,2.1-19.4,7.3-28.1c3.8-6.4,8.9-11.4,15.4-15.1c8.3-4.7,17.3-5.8,26.7-4.9
		c11.2,1.1,20.3,6.2,27.1,15c4.5,5.7,7.1,12.4,8.5,19.6c1.6,8,1.6,16,0.1,24c-1.8,9.9-5.7,18.9-13.3,26c-3,2.9-6.4,5.2-10.3,6.9
		c-11.3,4.9-22.9,5.7-34.6,1.3c-8.4-3.1-14.8-8.7-19.5-16.3C897.5,191.1,895.7,181.4,895.5,171.4z M968.6,170.4
		c-0.1-7.7-1.3-15.3-5.2-22.2c-5.2-9.1-12.6-15-23.5-15.3c-4.8-0.1-9.5,0.5-13.9,2.9c-6.4,3.5-10.7,8.8-13.4,15.4
		c-3,7.3-4.5,14.9-3.9,22.9c0.5,7.7,2.4,14.9,6.6,21.5c4.6,7.3,11.3,12,19.8,12.9c11.9,1.3,21.2-3.4,27.5-13.6
		C967.1,187.4,968.4,179.1,968.6,170.4z"/>
	<path class="st0" d="M501.3,171.3c-0.2-6.2,0.9-11.9,3.3-17.4c4.5-10.5,12.5-17,23.5-19.7c7.4-1.9,14.9-1.5,22.2,1.3
		c9.5,3.7,15.9,10.3,19.2,19.8c3.8,11,3.5,22-0.9,32.7c-4.6,11.1-13.3,17.4-25,19.7c-8.1,1.6-16,0.8-23.4-2.8
		c-6.8-3.3-11.6-8.5-14.9-15.3C502.3,183.7,501,177.6,501.3,171.3z M558.3,170.9c0-3.9-0.4-7.8-1.7-11.5c-1.8-5.4-4.7-10.1-9.6-13.3
		c-8.1-5.2-19.3-3.2-25.1,3.5c-3,3.5-5.1,7.5-6.2,12c-0.9,3.9-1.1,7.9-1,11.9c0.2,6.1,2.1,11.6,5.6,16.5c6.4,8.9,17.6,11.1,26.7,5.2
		c4.3-2.8,7.2-7,9-11.8C557.6,179.3,558.3,175.1,558.3,170.9z"/>
	<path class="st0" d="M781,170.8c0.1,6.4-1.2,12.6-3.9,18.3c-4.1,8.8-10.9,14.6-20.2,17.5c-8,2.4-16,2.4-23.9-0.1
		c-6.5-2-11.8-6.1-15.7-11.6c-6.2-8.8-8.1-18.8-6.8-29.3c0.8-6.4,2.7-12.4,6.4-17.8c5.3-7.7,12.7-12.3,21.8-14
		c8-1.5,15.9-0.8,23.4,2.9c8.4,4.1,13.8,10.7,16.6,19.5c0.9,2.7,1.4,5.6,1.9,8.4C780.9,166.6,780.9,168.7,781,170.8z M723.6,170.9
		c0.2,7.4,2,14.4,6.9,20.3c5.3,6.4,13.9,8.8,21.7,6c5.5-2.1,9.4-5.9,11.9-11.2c4.9-10.7,4.8-21.4-0.6-31.8
		c-3.6-6.8-9.2-10.9-17.2-11c-8.4-0.1-14.4,3.8-18.3,10.9C724.9,159.2,723.7,164.8,723.6,170.9z"/>
	<path class="st0" d="M1229.7,184.1c0-6.9,1.6-13.3,5-19.3c4.1-7.2,10.1-12,18.1-14.4c7.3-2.2,14.7-2,21.9,0.4
		c6.6,2.2,11.9,6.3,15.4,12.3c7.8,13.4,7.3,27.1,0.2,40.6c-2.2,4.2-5.6,7.4-9.6,9.8c-9.5,5.7-19.7,7-30.2,3.2
		c-11-4-17.3-12.2-19.6-23.5C1230.2,190.3,1230.1,187.2,1229.7,184.1z M1242.3,184.1c0.1,6.2,1.4,12.6,5.9,18.1
		c2.5,3.1,5.7,5.3,9.6,6.5c7.7,2.3,16.1-1.8,20.1-7.8c2.6-3.9,4.1-8.1,4.6-12.7c0.9-7.7-0.3-14.9-4.5-21.6
		c-7.1-11.3-23.7-10.8-30.7-0.4C1243.9,171.5,1242.6,177.3,1242.3,184.1z"/>
	<path class="st0" d="M1100.7,183.9c0.3,6-1.1,12-3.9,17.7c-3.4,6.8-8.7,11.4-15.7,14.4c-5.5,2.4-11.3,3.2-17.1,2.6
		c-9.8-1-17.8-5.5-23.2-13.9c-5.4-8.4-6.5-17.6-5.1-27.3c0.8-5,2.3-9.7,5.1-14.1c4-6.2,9.5-10.5,16.6-12.7
		c7.7-2.4,15.5-2.4,23.1,0.3c8.2,2.9,13.9,8.5,17.3,16.5C1099.9,172.7,1101,178,1100.7,183.9z M1088.2,183.7
		c-0.6-8.8-1.8-12.4-5.3-17.4c-2.4-3.5-5.7-6.1-9.8-7.2c-9.4-2.4-17.8,1.3-22.1,9.9c-3.3,6.5-4.5,13.5-3,20.7
		c1.1,5.5,3.1,10.8,7.5,14.6c5.1,4.5,10.9,6.4,17.5,4.2c7.1-2.4,11.5-7.7,13.6-14.7C1087.5,190.5,1087.7,187.1,1088.2,183.7z"/>
	<path class="st0" d="M582.5,145.6c0-3.8,0-7.2,0-10.8c18.2,0,36.3,0,54.7,0c0.3,2.6,0.2,5.1-0.1,7.6c-0.1,0.7-0.7,1.4-1.1,2.1
		c-3.8,5.1-7.6,10.2-11.5,15.3c-7.4,9.7-14.8,19.4-22.3,29.1c-1.4,1.8-2.9,3.4-4.3,5.2c-0.5,0.6-0.9,1.2-1.7,2.2
		c14.1,0,27.8,0,41.7,0c0,3.6,0,6.9,0,10.4c-19.4,0-38.8,0-58.3,0c0-2.4-0.1-4.8,0-7c0-0.7,0.6-1.5,1-2.1
		c9.3-12.1,18.5-24.2,27.9-36.3c3.8-4.9,7.8-9.5,11.7-14.3c0.2-0.3,0.4-0.6,0.9-1.4c-6.8,0-13.1,0-19.5,0
		C595.4,145.6,589.1,145.6,582.5,145.6z"/>
	<path class="st0" d="M757.5,109.8c-1.9,0.3-3.4-0.2-4.8-1.2c-3.5-2.4-4.4-8.7-1.2-11.6c1.6-1.4,3.2-3,5.1-4
		c10-5.5,20.6-7.3,31.8-4.3c6.7,1.8,12.7,5.2,18.1,9.5c6.8,5.5,12.2,12.2,16.8,19.5c5.4,8.3,10.3,16.9,15.4,25.3
		c4.4,7.4,8.8,14.8,13.2,22.2c0.3,0.5,0.6,0.9,1.2,1.7c1.1-1.9,2.1-3.4,2.9-5.1c2.5-4.9,5-9.8,7.4-14.7c1.5-3,2.4-6.1,2.3-9.4
		c-0.1-2.2-0.5-4.1-2.3-5.6c-0.2-0.2-0.4-0.5-0.7-0.9c1.5-0.9,2.8-1.5,4.5-0.7c1.9,0.9,3.1,2.4,3.2,4.4c0,1.3-0.3,2.7-0.9,3.9
		c-1.3,2.9-2.8,5.7-4.3,8.5c-2.3,4.3-4.7,8.5-7,12.8c-1.4,2.7-2.8,5.4-4.2,8.1c-0.3,0.7-0.4,1.5-0.4,2.3c0,10.1,0,20.1,0,30.1
		c0,2.3,0.7,4.4,2,6.3c0.8,1.1,1.5,2.2,2.2,3.4c0.4,0.7,0.5,1.4,0.9,2.5c-6.7,0.2-13,0.1-19.4,0.1c-0.4-1.5,0.2-2.5,1-3.4
		c2.9-3.3,3.8-7.2,3.8-11.5c-0.1-8.1-0.1-16.1,0-24.2c0-1.4-0.3-2.6-1-3.9c-4.1-6.9-8.2-13.9-12.2-20.8c-2.1-3.6-4.3-7.3-6.4-11
		c-4.5-7.9-9.4-15.6-15-22.8c-6-7.7-12.4-15-20.7-20.4c-4.4-2.8-9.1-4.9-14.2-5.5c-7.5-0.9-15.5,2.3-16.9,12.1
		c-0.3,2-0.1,4.1-0.2,6.2C757.5,108.5,757.5,109.1,757.5,109.8z"/>
	<path class="st0" d="M1123,207.3c12.8,0,25.5,0,38.4,0c0,3.4,0,6.4,0,9.5c-0.1,0.1-0.1,0.1-0.2,0.2c-0.1,0.1-0.1,0.1-0.2,0.1
		c-0.3,0.1-0.6,0.2-0.9,0.2c-17.1,0-34.2,0-51.4,0c-0.4,0-0.8,0-1.2-0.1c-0.1,0-0.3-0.1-0.6-0.3c0-1.9-0.1-4,0.1-6.1
		c0.1-0.8,0.6-1.6,1.2-2.3c8-10.3,15.9-20.6,24-30.8c3.8-4.9,7.8-9.7,11.7-14.6c0.6-0.7,1.1-1.5,1.9-2.7c-12.3,0-24,0-35.8,0
		c0-3.3,0-6.4,0-9.6c17,0,34,0,50.9,0c0,2.3,0.1,4.4-0.1,6.5c-0.1,0.9-0.7,2-1.3,2.8c-6.9,9-13.9,17.9-20.9,26.8
		c-3.4,4.4-6.7,8.7-10.1,13.1c-1.3,1.6-2.7,3.2-4,4.7c-0.6,0.6-1.2,1.3-1.7,1.9C1122.9,206.9,1122.9,207.1,1123,207.3z"/>
	<path class="st0" d="M701.3,136.8c-1,3.5-1.9,6.8-2.9,10.2c-0.7-0.2-1.2-0.4-1.7-0.6c-7.2-3.1-14.6-3.9-22.2-1.4
		c-6.2,2-10.7,5.9-13.5,11.8c-4.3,8.9-4.5,18.1-0.5,27.1c4.2,9.3,11.8,13.8,21.9,13.9c5,0.1,9.9-0.8,14.5-2.6c0.5-0.2,1-0.4,1.9-0.7
		c0.7,3.4,1.4,6.7,2.1,10.2c-2.4,0.7-4.5,1.5-6.8,2.1c-5.6,1.4-11.4,2-17.1,1.5c-7.3-0.6-14.1-2.6-20-7.3
		c-6.1-4.9-9.8-11.2-11.5-18.6c-2.5-10.5-1.8-20.7,3.4-30.4c3.4-6.4,8.3-11.2,14.9-14.4c11.7-5.7,23.5-5.8,35.6-1.5
		C700,136.2,700.5,136.5,701.3,136.8z"/>
	<path class="st0" d="M1219.3,205.3c0.7,3.3,1.3,6.4,2,9.6c-4.7,1.8-9.3,3.5-14.2,3.7c-4.5,0.2-8.9,0.3-13.4-0.6
		c-11.7-2.4-22.1-11.6-24.3-25.3c-1.2-7.3-1.2-14.6,1.5-21.7c4.1-10.9,11.8-17.7,23.1-20.7c8.6-2.2,16.9-1.6,25.3,1.1
		c0.7,0.2,1.4,0.4,2.3,0.7c-0.4,3.3-1.9,6.3-2.5,9.8c-1-0.4-1.7-0.6-2.5-0.9c-6.2-2.3-12.6-3-19.1-1.2c-6.9,1.9-11.5,6.2-14.3,12.8
		c-3.2,7.5-3.2,15.1,0,22.6c3.5,8.3,10,12.6,18.8,13.5c5,0.6,9.9-0.5,14.5-2.3C1217.4,206.1,1218.1,205.8,1219.3,205.3z"/>
	<path class="st0" d="M472.6,206.5h-12.8l-0.3-71.8h11l0.6,14c0,0,1-1.1,1.1-1.6c1.9-5.2,5.5-9.1,10.3-11.9
		c3.9-2.3,12.6-1.9,12.6-1.9l0.3,12.4c0,0-1.8,0-2.6,0c-10.1-0.5-17.8,5.7-19.3,15.7c-0.5,3.6-0.8,7.3-0.9,10.9
		c-0.1,10.5,0,21-0.1,31.6C472.6,204.8,472.6,206.5,472.6,206.5z"/>
	<path class="st0" d="M1008.4,216.8c-4.2,0-8,0-12.1,0c-0.1-0.8-0.2-1.6-0.2-2.3c0-14.7,0-29.5,0-44.2c0-5.8-0.3-11.6-0.5-17.4
		c0-0.6,0-1.1,0-1.6c1.4-0.6,7.4-0.7,10.8-0.2c0.2,3.9,0.4,7.8,0.6,11.7c0.2,0.1,0.3,0.1,0.5,0.2c0.3-0.6,0.6-1.1,0.9-1.7
		c2.7-6,7-10,13.4-11.6c1.7-0.4,3.5-0.5,5.2-0.5c1.9,0,2.4,0.6,2.4,2.5c0.1,3,0,6,0,9.1c-0.7,0.1-1.1,0.2-1.6,0.1
		c-8.6-1.5-15,4.2-17.6,10.9c-1.4,3.5-1.8,7.2-1.9,11c0,10.5,0,21-0.1,31.6C1008.4,215,1008.4,215.8,1008.4,216.8z"/>
	<path class="st0" d="M186.3,177.6c0.6,4.5-4.8,10.6-10.6,10.4c-5.5-0.2-10.5-5.1-10.5-10.7c0-5.2,4.3-10.5,10.6-10.5
		C181.6,166.8,186.7,172,186.3,177.6z M175.8,180.5c1.7,0,3.1-1.5,3.1-3.2c0-1.6-1.6-3.1-3.3-3c-1.7,0.1-2.9,1.4-2.9,3.1
		C172.7,179.1,174.1,180.5,175.8,180.5z"/>
</g>
</svg>
