<?xml version="1.0" encoding="utf-8"?>
<!-- Generator: Adobe Illustrator 27.1.0, SVG Export Plug-In . SVG Version: 6.00 Build 0)  -->
<svg version="1.1" id="Capa_1" xmlns="http://www.w3.org/2000/svg" xmlns:xlink="http://www.w3.org/1999/xlink" x="0px" y="0px"
	 viewBox="0 0 1366 259.5" style="enable-background:new 0 0 1366 259.5;" xml:space="preserve">
<style type="text/css">
	.st0{fill:#3A8BC5;}
</style>
<g>
	<path class="st0" d="M237.64,16.79c0.15,0.86,0.85,0.8,1.48,0.9c3.55,0.57,7.13,0.98,10.63,1.77c10.8,2.43,20.76,6.87,29.96,12.99
		c14.75,9.81,25.76,22.72,32.94,38.94c4.52,10.2,7.1,20.81,7.87,31.86c0.57,8.07-0.09,16.08-1.8,24.01
		c-1.52,7.04-3.73,13.86-6.83,20.36c-3.55,7.44-7.87,14.41-13.31,20.66c-5.49,6.3-11.58,11.91-18.57,16.51
		c-9.7,6.39-20.1,11.17-31.63,13.2c-1.86,0.33-2.85,1.09-3.67,2.83c-7.38,15.79-18.46,28.41-33.12,37.9
		c-6.2,4.01-12.83,7.07-19.79,9.58c-10.79,3.9-21.88,5.21-33.25,4.85c-17.48-0.54-33.56-5.55-47.93-15.48
		c-13.03-9-23.36-20.46-30.53-34.7c-5.53-10.98-8.79-22.5-9.63-34.77c-1.21-17.56,2.22-34.07,10.53-49.6
		c8.27-15.45,20.09-27.45,35.22-36.31c8-4.69,16.52-8.04,25.59-9.92c2.4-0.5,3.59-1.7,4.63-3.81c8.44-17.18,21.12-30.42,37.72-39.98
		c6.76-3.9,13.97-6.7,21.49-8.68c2.54-0.67,5.16-1.07,7.74-1.59c0.94-0.19,1.64-0.46,0.72-1.52
		C221.95,16.79,229.79,16.79,237.64,16.79z M141.49,80.14c-30.25,6.31-65.8,37.45-64.04,84.9c1.8,48.5,45.73,88.46,97.74,79.86
		c49.27-8.15,78.6-53.8,69.54-99.51c-9.43-47.59-55.67-73.73-94.73-66.91c-2.26,6.19-4.09,12.5-4.91,19.12
		c-1.41,11.48-0.64,22.81,2.47,33.9c3.07,10.94,8.26,20.88,15.47,29.74c0.75,0.92,1.41,1.95,1.97,3c0.84,1.56,0.35,3.42-1.05,4.46
		c-1.37,1.02-2.98,0.95-4.38-0.29c-0.71-0.63-1.34-1.37-1.94-2.12c-8.15-10.16-13.97-21.47-17.37-34.07
		c-3.88-14.38-4.28-28.79-0.99-43.3C139.95,86,140.75,83.1,141.49,80.14z M249.27,190.15c31.08-6.95,63.75-36.47,64.01-81.52
		c0.26-46.56-37.83-82.47-80.51-84.22c-23.84-0.98-44.39,7.03-61.9,23.03c-6.9,6.3-16.34,19.23-16.54,22.61
		c32.14-1.29,59.21,9.58,79.32,34.8C253.85,130.19,258.04,159.03,249.27,190.15z"/>
	<path class="st0" d="M443.12,156.88c-0.22,7.19-0.83,14.36-3.32,21.18c-4.31,11.78-11.64,21.06-23.32,26.34
		c-4.97,2.25-10.28,3.51-15.77,3.84c-5.95,0.35-11.8-0.07-17.58-1.69c-8.24-2.31-14.83-7.03-20.24-13.46
		c-6.24-7.42-9.58-16.11-10.87-25.65c-1.42-10.51-0.89-20.9,2.75-30.91c6.54-17.96,19.25-28.83,38.44-30.9
		c15.54-1.68,28.95,3.43,39.11,15.56c4.88,5.83,7.74,12.8,9.33,20.24C442.76,146.53,443.32,151.67,443.12,156.88z M365.23,156.49
		c0.12,2.01,0.16,4,0.36,5.98c0.83,8.38,3.03,16.3,8.24,23.11c5.91,7.74,13.52,12.16,23.57,11.95c8.9-0.19,16.35-3.41,22.16-10.12
		c3.11-3.58,5.37-7.75,6.83-12.26c3.32-10.3,3.91-20.74,1.49-31.35c-2.06-9.01-6.26-16.66-13.8-22.26
		c-6.6-4.9-14.15-6.34-22.06-4.92c-9.19,1.65-15.94,6.98-20.5,15.1C367.2,139.45,365.63,147.82,365.23,156.49z"/>
	<path class="st0" d="M895.46,171.35c0.32-9.87,2.08-19.39,7.26-28.09c3.81-6.4,8.9-11.41,15.36-15.09
		c8.32-4.74,17.3-5.83,26.67-4.87c11.2,1.14,20.26,6.22,27.14,14.95c4.51,5.72,7.13,12.43,8.52,19.56
		c1.56,7.99,1.57,16.03,0.1,24.02c-1.83,9.94-5.72,18.9-13.26,25.96c-3.05,2.85-6.43,5.24-10.29,6.91
		c-11.35,4.91-22.9,5.66-34.56,1.3c-8.37-3.13-14.79-8.73-19.51-16.27C897.47,191.05,895.73,181.43,895.46,171.35z M968.58,170.43
		c-0.09-7.7-1.26-15.28-5.25-22.19c-5.23-9.06-12.56-14.99-23.52-15.31c-4.85-0.14-9.53,0.52-13.9,2.91
		c-6.4,3.49-10.74,8.76-13.44,15.36c-2.99,7.31-4.45,14.94-3.9,22.89c0.53,7.67,2.42,14.92,6.59,21.47
		c4.64,7.27,11.28,12,19.8,12.94c11.86,1.3,21.2-3.45,27.54-13.65C967.12,187.4,968.39,179.11,968.58,170.43z"/>
	<path class="st0" d="M501.28,171.27c-0.19-6.18,0.89-11.89,3.28-17.42c4.55-10.51,12.48-17.01,23.46-19.73
		c7.44-1.85,14.88-1.5,22.15,1.3c9.48,3.66,15.9,10.31,19.18,19.78c3.8,10.96,3.5,22.04-0.9,32.73
		c-4.57,11.11-13.33,17.44-25.03,19.72c-8.06,1.57-15.99,0.82-23.41-2.76c-6.76-3.27-11.65-8.51-14.91-15.31
		C502.29,183.71,500.98,177.56,501.28,171.27z M558.27,170.88c0.02-3.93-0.43-7.8-1.65-11.54c-1.77-5.43-4.69-10.11-9.61-13.3
		c-8.07-5.24-19.26-3.21-25.14,3.51c-3.05,3.49-5.08,7.48-6.16,11.99c-0.94,3.91-1.13,7.86-0.99,11.86
		c0.2,6.08,2.1,11.57,5.63,16.49c6.39,8.9,17.64,11.13,26.72,5.18c4.33-2.84,7.17-6.98,9.01-11.79
		C557.58,179.29,558.28,175.15,558.27,170.88z"/>
	<path class="st0" d="M780.98,170.75c0.14,6.42-1.2,12.56-3.88,18.33c-4.08,8.78-10.86,14.65-20.16,17.5
		c-7.95,2.44-15.95,2.38-23.86-0.07c-6.55-2.03-11.78-6.06-15.71-11.62c-6.24-8.82-8.08-18.75-6.78-29.33
		c0.79-6.41,2.7-12.42,6.4-17.82c5.3-7.73,12.74-12.27,21.8-13.98c8.02-1.51,15.87-0.79,23.37,2.92
		c8.39,4.15,13.77,10.71,16.56,19.47c0.87,2.72,1.43,5.56,1.89,8.38C780.93,166.58,780.86,168.68,780.98,170.75z M723.6,170.86
		c0.18,7.4,1.97,14.38,6.87,20.33c5.31,6.43,13.94,8.84,21.66,5.96c5.52-2.07,9.44-5.93,11.87-11.22
		c4.9-10.66,4.85-21.35-0.61-31.76c-3.58-6.82-9.2-10.89-17.23-11.03c-8.38-0.15-14.36,3.77-18.34,10.86
		C724.9,159.16,723.71,164.83,723.6,170.86z"/>
	<path class="st0" d="M1229.68,184.1c0.01-6.9,1.58-13.31,4.99-19.29c4.1-7.2,10.12-12.01,18.09-14.36c7.35-2.17,14.68-2,21.95,0.44
		c6.63,2.22,11.9,6.26,15.38,12.28c7.78,13.44,7.31,27.07,0.21,40.59c-2.18,4.16-5.6,7.42-9.63,9.83c-9.53,5.7-19.72,7-30.18,3.2
		c-10.96-3.99-17.3-12.19-19.64-23.47C1230.23,190.29,1230.06,187.18,1229.68,184.1z M1242.33,184.1c0.08,6.2,1.44,12.64,5.9,18.13
		c2.54,3.13,5.71,5.34,9.56,6.49c7.68,2.29,16.09-1.8,20.13-7.8c2.6-3.85,4.07-8.09,4.59-12.69c0.86-7.67-0.26-14.86-4.46-21.55
		c-7.1-11.31-23.7-10.75-30.65-0.42C1243.88,171.5,1242.6,177.3,1242.33,184.1z"/>
	<path class="st0" d="M1100.68,183.9c0.26,6.03-1.1,12.04-3.95,17.7c-3.4,6.76-8.69,11.45-15.66,14.45
		c-5.52,2.38-11.27,3.2-17.12,2.59c-9.82-1.03-17.82-5.46-23.24-13.86c-5.42-8.39-6.51-17.63-5.07-27.33
		c0.75-5.03,2.28-9.74,5.06-14.05c4.01-6.21,9.47-10.47,16.55-12.7c7.74-2.44,15.46-2.37,23.08,0.34
		c8.19,2.92,13.9,8.52,17.34,16.49C1099.88,172.66,1100.96,177.99,1100.68,183.9z M1088.22,183.69c-0.56-8.79-1.82-12.39-5.29-17.43
		c-2.44-3.53-5.65-6.12-9.85-7.19c-9.36-2.4-17.77,1.32-22.1,9.93c-3.26,6.5-4.47,13.47-3.03,20.67c1.11,5.54,3.11,10.76,7.5,14.65
		c5.06,4.49,10.89,6.43,17.51,4.17c7.11-2.43,11.48-7.69,13.58-14.7C1087.51,190.53,1087.68,187.06,1088.22,183.69z"/>
	<path class="st0" d="M582.54,145.58c0-3.82,0-7.23,0-10.81c18.2,0,36.31,0,54.66,0c0.26,2.56,0.19,5.09-0.06,7.59
		c-0.07,0.72-0.66,1.43-1.13,2.07c-3.81,5.12-7.61,10.25-11.48,15.33c-7.4,9.71-14.84,19.4-22.29,29.07
		c-1.36,1.77-2.86,3.44-4.28,5.16c-0.49,0.6-0.94,1.23-1.69,2.22c14.12,0,27.81,0,41.67,0c0,3.58,0,6.88,0,10.37
		c-19.42,0-38.81,0-58.32,0c0-2.45-0.08-4.75,0.05-7.03c0.04-0.72,0.58-1.47,1.05-2.08c9.27-12.1,18.52-24.22,27.87-36.26
		c3.77-4.85,7.77-9.52,11.66-14.28c0.23-0.28,0.4-0.62,0.89-1.36c-6.75-0.02-13.11,0.02-19.46,0.02
		C595.38,145.58,589.08,145.58,582.54,145.58z"/>
	<path class="st0" d="M757.54,109.83c-1.87,0.33-3.41-0.25-4.8-1.22c-3.47-2.43-4.41-8.68-1.16-11.64c1.58-1.44,3.2-2.96,5.06-3.98
		c10.01-5.49,20.61-7.26,31.75-4.27c6.73,1.81,12.69,5.19,18.13,9.53c6.84,5.46,12.16,12.25,16.83,19.51
		c5.36,8.31,10.34,16.87,15.43,25.35c4.43,7.39,8.79,14.83,13.18,22.24c0.28,0.46,0.62,0.89,1.17,1.68
		c1.07-1.87,2.06-3.45,2.91-5.11c2.51-4.9,4.99-9.81,7.44-14.74c1.47-2.96,2.44-6.05,2.35-9.42c-0.06-2.16-0.51-4.11-2.28-5.56
		c-0.23-0.19-0.38-0.5-0.66-0.89c1.46-0.88,2.85-1.48,4.47-0.71c1.87,0.89,3.13,2.38,3.21,4.42c0.05,1.29-0.33,2.69-0.87,3.88
		c-1.33,2.9-2.82,5.72-4.33,8.54c-2.3,4.29-4.68,8.53-6.99,12.81c-1.44,2.67-2.84,5.36-4.16,8.08c-0.33,0.68-0.4,1.54-0.4,2.31
		c-0.02,10.05,0.01,20.1-0.02,30.15c-0.01,2.33,0.65,4.38,2,6.26c0.79,1.1,1.55,2.23,2.22,3.41c0.37,0.66,0.52,1.44,0.89,2.5
		c-6.68,0.23-13.03,0.08-19.43,0.1c-0.41-1.47,0.22-2.52,0.99-3.39c2.94-3.31,3.83-7.2,3.76-11.52c-0.12-8.05-0.06-16.11-0.03-24.17
		c0.01-1.41-0.3-2.65-1.02-3.86c-4.1-6.94-8.17-13.89-12.25-20.84c-2.14-3.65-4.29-7.29-6.39-10.96
		c-4.54-7.9-9.41-15.59-14.99-22.79c-5.97-7.72-12.36-15.04-20.72-20.42c-4.4-2.83-9.1-4.87-14.2-5.47
		c-7.48-0.87-15.48,2.31-16.91,12.05c-0.3,2.02-0.14,4.11-0.18,6.17C757.53,108.51,757.54,109.12,757.54,109.83z"/>
	<path class="st0" d="M1123.01,207.28c12.75,0,25.49,0,38.39,0c0,3.35,0,6.43,0,9.49c-0.08,0.07-0.14,0.13-0.2,0.18
		c-0.06,0.05-0.12,0.12-0.19,0.13c-0.31,0.07-0.62,0.17-0.94,0.17c-17.12,0.02-34.24,0.03-51.36,0.03c-0.4,0-0.8-0.04-1.19-0.1
		c-0.14-0.02-0.27-0.15-0.58-0.33c0-1.95-0.11-4.01,0.05-6.05c0.06-0.8,0.63-1.63,1.15-2.3c7.97-10.28,15.94-20.56,23.97-30.79
		c3.84-4.9,7.8-9.7,11.7-14.55c0.57-0.72,1.09-1.48,1.95-2.67c-12.27,0-23.97,0-35.83,0c0-3.33,0-6.39,0-9.64
		c17.03,0,34.01,0,50.95,0c0,2.26,0.13,4.4-0.06,6.51c-0.09,0.95-0.68,1.96-1.3,2.75c-6.93,8.97-13.91,17.89-20.86,26.84
		c-3.38,4.35-6.72,8.72-10.12,13.05c-1.28,1.63-2.67,3.17-4.02,4.74c-0.56,0.65-1.16,1.28-1.74,1.92
		C1122.86,206.86,1122.93,207.07,1123.01,207.28z"/>
	<path class="st0" d="M701.28,136.81c-0.98,3.51-1.9,6.77-2.86,10.22c-0.72-0.24-1.23-0.38-1.71-0.59
		c-7.24-3.1-14.63-3.9-22.22-1.42c-6.17,2.01-10.72,5.95-13.52,11.77c-4.31,8.92-4.53,18.08-0.49,27.06
		c4.17,9.27,11.75,13.79,21.92,13.9c5,0.06,9.87-0.78,14.53-2.63c0.52-0.2,1.04-0.4,1.89-0.72c0.7,3.39,1.37,6.66,2.1,10.23
		c-2.38,0.74-4.55,1.52-6.77,2.09c-5.62,1.42-11.36,1.98-17.14,1.52c-7.3-0.58-14.1-2.57-19.95-7.27
		c-6.06-4.86-9.79-11.19-11.51-18.57c-2.45-10.48-1.75-20.74,3.44-30.43c3.42-6.38,8.34-11.25,14.87-14.43
		c11.65-5.68,23.55-5.77,35.63-1.49C700,136.21,700.49,136.46,701.28,136.81z"/>
	<path class="st0" d="M1219.34,205.32c0.69,3.34,1.32,6.41,1.98,9.63c-4.71,1.82-9.28,3.46-14.2,3.66
		c-4.47,0.18-8.9,0.28-13.37-0.63c-11.74-2.38-22.06-11.64-24.32-25.3c-1.21-7.33-1.17-14.64,1.47-21.69
		c4.07-10.85,11.79-17.73,23.07-20.68c8.55-2.24,16.95-1.55,25.27,1.1c0.68,0.22,1.36,0.44,2.31,0.74c-0.44,3.29-1.87,6.3-2.48,9.79
		c-1.01-0.35-1.74-0.59-2.47-0.86c-6.23-2.3-12.55-3.02-19.05-1.23c-6.89,1.9-11.53,6.25-14.27,12.75
		c-3.16,7.51-3.17,15.06-0.01,22.55c3.49,8.29,10.03,12.55,18.81,13.53c5.03,0.57,9.87-0.46,14.53-2.34
		C1217.38,206.05,1218.12,205.78,1219.34,205.32z"/>
	<path class="st0" d="M472.57,206.54h-12.82l-0.33-71.77h11.03l0.65,14.02c0,0,0.97-1.13,1.13-1.55c1.93-5.25,5.5-9.09,10.27-11.89
		c3.91-2.29,12.65-1.94,12.65-1.94l0.27,12.43c0,0-1.82,0.03-2.59,0c-10.08-0.46-17.8,5.71-19.33,15.68
		c-0.55,3.61-0.83,7.28-0.87,10.93c-0.12,10.52-0.05,21.04-0.06,31.56C472.57,204.81,472.57,206.54,472.57,206.54z"/>
	<path class="st0" d="M1008.43,216.84c-4.19,0-8.01,0-12.09,0c-0.06-0.81-0.15-1.58-0.15-2.34c-0.01-14.74,0.04-29.49-0.04-44.23
		c-0.03-5.81-0.32-11.62-0.48-17.44c-0.02-0.55,0-1.1,0-1.64c1.42-0.59,7.39-0.74,10.84-0.25c0.2,3.86,0.39,7.78,0.59,11.7
		c0.15,0.06,0.3,0.12,0.45,0.17c0.3-0.56,0.64-1.1,0.9-1.67c2.66-5.96,7.02-10.02,13.44-11.61c1.68-0.42,3.48-0.53,5.22-0.5
		c1.91,0.03,2.4,0.62,2.43,2.49c0.05,3.01,0.01,6.02,0.01,9.15c-0.65,0.06-1.12,0.21-1.55,0.14c-8.62-1.46-15.02,4.18-17.63,10.85
		c-1.38,3.54-1.85,7.25-1.87,11.01c-0.05,10.52-0.05,21.04-0.06,31.56C1008.43,215,1008.43,215.79,1008.43,216.84z"/>
	<path class="st0" d="M186.32,177.61c0.63,4.54-4.77,10.61-10.62,10.43c-5.51-0.18-10.54-5.14-10.51-10.71
		c0.03-5.25,4.3-10.53,10.6-10.53C181.61,166.78,186.67,171.99,186.32,177.61z M175.83,180.49c1.69-0.04,3.09-1.49,3.12-3.25
		c0.03-1.64-1.55-3.1-3.28-3.03c-1.71,0.07-2.94,1.36-2.95,3.08C172.71,179.06,174.14,180.53,175.83,180.49z"/>
</g>
</svg>
