<?xml version="1.0" encoding="utf-8"?>
<!-- Generator: Adobe Illustrator 27.1.0, SVG Export Plug-In . SVG Version: 6.00 Build 0)  -->
<svg version="1.1" id="Capa_1" xmlns="http://www.w3.org/2000/svg" xmlns:xlink="http://www.w3.org/1999/xlink" x="0px" y="0px"
	 viewBox="0 0 1366 768" style="enable-background:new 0 0 1366 768;" xml:space="preserve">
<style type="text/css">
	.st0{fill:#3A8BC5;}
</style>
<g>
	<path class="st0" d="M827.7,60.98c0.41,2.34,2.32,2.19,4.03,2.46c9.69,1.56,19.49,2.68,29.05,4.82
		c29.52,6.63,56.73,18.78,81.88,35.5c40.31,26.8,70.38,62.08,90.02,106.41c12.34,27.86,19.4,56.86,21.52,87.06
		c1.55,22.05-0.24,43.95-4.92,65.61c-4.16,19.25-10.19,37.87-18.66,55.63c-9.7,20.34-21.49,39.37-36.37,56.45
		c-15,17.21-31.65,32.54-50.74,45.11c-26.51,17.46-54.94,30.52-86.43,36.06c-5.09,0.9-7.8,2.98-10.03,7.74
		c-20.17,43.14-50.43,77.64-90.49,103.57c-16.94,10.96-35.06,19.31-54.07,26.19c-29.47,10.66-59.78,14.23-90.85,13.26
		c-47.76-1.48-91.72-15.17-130.98-42.29c-35.61-24.6-63.84-55.91-83.43-94.81c-15.11-30.02-24.01-61.49-26.32-95.02
		c-3.32-47.98,6.06-93.11,28.77-135.53c22.6-42.22,54.91-75.01,96.24-99.23c21.87-12.82,45.15-21.96,69.92-27.1
		c6.57-1.36,9.82-4.66,12.65-10.41c23.07-46.94,57.72-83.13,103.08-109.25c18.48-10.64,38.16-18.3,58.73-23.72
		c6.95-1.83,14.1-2.93,21.16-4.35c2.56-0.51,4.49-1.27,1.96-4.14C784.83,60.98,806.27,60.98,827.7,60.98z M564.99,234.1
		c-82.67,17.24-179.8,102.33-174.99,232.01c4.92,132.52,124.95,241.74,267.08,218.24c134.64-22.26,214.78-147.03,190.04-271.91
		c-25.77-130.04-152.12-201.48-258.85-182.85c-6.17,16.92-11.18,34.17-13.41,52.26c-3.86,31.37-1.76,62.33,6.76,92.64
		c8.4,29.89,22.57,57.07,42.28,81.26c2.06,2.52,3.84,5.32,5.39,8.19c2.3,4.27,0.97,9.35-2.87,12.2c-3.75,2.79-8.14,2.6-11.96-0.81
		c-1.94-1.73-3.66-3.75-5.3-5.79c-22.27-27.76-38.18-58.68-47.46-93.09c-10.59-39.28-11.69-78.67-2.72-118.33
		C560.78,250.12,562.94,242.21,564.99,234.1z M859.5,534.72c84.93-18.98,174.22-99.67,174.91-222.77
		c0.71-127.24-103.36-225.37-220.01-230.15c-65.15-2.67-121.29,19.21-169.16,62.93c-18.85,17.21-44.66,52.54-45.19,61.79
		c87.82-3.52,161.81,26.17,216.76,95.09C872.02,370.87,883.45,449.69,859.5,534.72z"/>
	<path class="st0" d="M687.47,500.45c1.73,12.41-13.04,29-29.02,28.49c-15.06-0.48-28.81-14.06-28.73-29.28
		c0.08-14.34,11.75-28.77,28.96-28.79C674.62,470.87,688.45,485.1,687.47,500.45z M658.81,508.33c4.63-0.1,8.43-4.07,8.52-8.87
		c0.08-4.49-4.23-8.47-8.97-8.27c-4.66,0.19-8.03,3.71-8.06,8.41C650.28,504.41,654.2,508.43,658.81,508.33z"/>
</g>
</svg>
