<?xml version="1.0" encoding="utf-8"?>
<!-- Generator: Adobe Illustrator 27.1.0, SVG Export Plug-In . SVG Version: 6.00 Build 0)  -->
<svg version="1.1" id="Capa_1" xmlns="http://www.w3.org/2000/svg" xmlns:xlink="http://www.w3.org/1999/xlink" x="0px" y="0px"
	 viewBox="0 0 1366 768" style="enable-background:new 0 0 1366 768;" xml:space="preserve">
<style type="text/css">
	.st0{fill:#FFFFFF;}
</style>
<g>
	<path class="st0" d="M827.7,61c0.4,2.3,2.3,2.2,4,2.5c9.7,1.6,19.5,2.7,29,4.8c29.5,6.6,56.7,18.8,81.9,35.5
		c40.3,26.8,70.4,62.1,90,106.4c12.3,27.9,19.4,56.9,21.5,87.1c1.6,22-0.2,44-4.9,65.6c-4.2,19.2-10.2,37.9-18.7,55.6
		c-9.7,20.3-21.5,39.4-36.4,56.5c-15,17.2-31.7,32.5-50.7,45.1c-26.5,17.5-54.9,30.5-86.4,36.1c-5.1,0.9-7.8,3-10,7.7
		c-20.2,43.1-50.4,77.6-90.5,103.6c-16.9,11-35.1,19.3-54.1,26.2c-29.5,10.7-59.8,14.2-90.8,13.3c-47.8-1.5-91.7-15.2-131-42.3
		c-35.6-24.6-63.8-55.9-83.4-94.8c-15.1-30-24-61.5-26.3-95c-3.3-48,6.1-93.1,28.8-135.5c22.6-42.2,54.9-75,96.2-99.2
		c21.9-12.8,45.1-22,69.9-27.1c6.6-1.4,9.8-4.7,12.7-10.4c23.1-46.9,57.7-83.1,103.1-109.2c18.5-10.6,38.2-18.3,58.7-23.7
		c7-1.8,14.1-2.9,21.2-4.3c2.6-0.5,4.5-1.3,2-4.1C784.8,61,806.3,61,827.7,61z M565,234.1c-82.7,17.2-179.8,102.3-175,232
		c4.9,132.5,125,241.7,267.1,218.2c134.6-22.3,214.8-147,190-271.9C821.3,282.4,695,211,588.3,229.6c-6.2,16.9-11.2,34.2-13.4,52.3
		c-3.9,31.4-1.8,62.3,6.8,92.6c8.4,29.9,22.6,57.1,42.3,81.3c2.1,2.5,3.8,5.3,5.4,8.2c2.3,4.3,1,9.4-2.9,12.2
		c-3.8,2.8-8.1,2.6-12-0.8c-1.9-1.7-3.7-3.8-5.3-5.8c-22.3-27.8-38.2-58.7-47.5-93.1c-10.6-39.3-11.7-78.7-2.7-118.3
		C560.8,250.1,562.9,242.2,565,234.1z M859.5,534.7c84.9-19,174.2-99.7,174.9-222.8c0.7-127.2-103.4-225.4-220-230.1
		c-65.2-2.7-121.3,19.2-169.2,62.9c-18.8,17.2-44.7,52.5-45.2,61.8c87.8-3.5,161.8,26.2,216.8,95.1
		C872,370.9,883.5,449.7,859.5,534.7z"/>
	<path class="st0" d="M687.5,500.5c1.7,12.4-13,29-29,28.5c-15.1-0.5-28.8-14.1-28.7-29.3c0.1-14.3,11.8-28.8,29-28.8
		C674.6,470.9,688.5,485.1,687.5,500.5z M658.8,508.3c4.6-0.1,8.4-4.1,8.5-8.9c0.1-4.5-4.2-8.5-9-8.3c-4.7,0.2-8,3.7-8.1,8.4
		C650.3,504.4,654.2,508.4,658.8,508.3z"/>
</g>
</svg>
